<mxfile host="app.diagrams.net" modified="2023-11-15T14:23:12.742Z" agent="Mozilla/5.0 (Windows NT 10.0; Win64; x64) AppleWebKit/537.36 (KHTML, like Gecko) Chrome/119.0.0.0 Safari/537.36" etag="YQnJJJJJJJJJJJJJJJJJ" version="21.8.2" type="device">
  <diagram name="Page-1" id="c7558073-3199-34d8-9f00-42111426c3f3">
    <mxGraphModel dx="1050" dy="541" grid="1" gridSize="10" guides="1" tooltips="1" connect="1" arrows="1" fold="1" page="1" pageScale="1" pageWidth="826" pageHeight="1169" background="none" math="0" shadow="0">
      <root>
        <mxCell id="0" />
        <mxCell id="1" parent="0" />
        
        <!-- Title -->
        <mxCell id="110" value="ER DIAGRAM - ERP-AI SYSTEM (STEP 1: COMPANY)" style="text;spacingTop=-5;align=center;fontSize=20;fontStyle=1" parent="1" vertex="1">
          <mxGeometry x="160" y="20" width="500" height="40" as="geometry" />
        </mxCell>
        
        <!-- COMPANY Entity -->
        <mxCell id="2" value="COMPANY" style="whiteSpace=wrap;align=center;verticalAlign=middle;fontStyle=1;strokeWidth=3;fillColor=#FFFFFF;fontSize=14;" parent="1" vertex="1">
          <mxGeometry x="340" y="200" width="120" height="60" as="geometry" />
        </mxCell>
        
        <!-- Company Attributes -->
        <mxCell id="3" value="&lt;u&gt;ID&lt;/u&gt;" style="ellipse;whiteSpace=wrap;html=1;align=center;fontStyle=1;strokeWidth=2;fillColor=#FFFFFF;fontSize=12;" parent="1" vertex="1">
          <mxGeometry x="280" y="120" width="60" height="40" as="geometry" />
        </mxCell>
        <mxCell id="4" value="Name" style="ellipse;whiteSpace=wrap;html=1;align=center;fontStyle=1;strokeWidth=2;fillColor=#FFFFFF;fontSize=12;" parent="1" vertex="1">
          <mxGeometry x="350" y="120" width="60" height="40" as="geometry" />
        </mxCell>
        <mxCell id="5" value="Email" style="ellipse;whiteSpace=wrap;html=1;align=center;fontStyle=1;strokeWidth=2;fillColor=#FFFFFF;fontSize=12;" parent="1" vertex="1">
          <mxGeometry x="420" y="120" width="60" height="40" as="geometry" />
        </mxCell>
        <mxCell id="6" value="Website" style="ellipse;whiteSpace=wrap;html=1;align=center;fontStyle=1;strokeWidth=2;fillColor=#FFFFFF;fontSize=12;" parent="1" vertex="1">
          <mxGeometry x="490" y="120" width="60" height="40" as="geometry" />
        </mxCell>
        <mxCell id="7" value="Logo" style="ellipse;whiteSpace=wrap;html=1;align=center;fontStyle=1;strokeWidth=2;fillColor=#FFFFFF;fontSize=12;" parent="1" vertex="1">
          <mxGeometry x="490" y="200" width="60" height="40" as="geometry" />
        </mxCell>
        <mxCell id="8" value="Phone" style="ellipse;whiteSpace=wrap;html=1;align=center;fontStyle=1;strokeWidth=2;fillColor=#FFFFFF;fontSize=12;" parent="1" vertex="1">
          <mxGeometry x="250" y="200" width="60" height="40" as="geometry" />
        </mxCell>
        
        <!-- Company Address (Composite Attribute) -->
        <mxCell id="9" value="Address" style="ellipse;whiteSpace=wrap;html=1;align=center;fontStyle=1;strokeWidth=2;fillColor=#FFFFFF;fontSize=12;" parent="1" vertex="1">
          <mxGeometry x="250" y="280" width="70" height="40" as="geometry" />
        </mxCell>
        <mxCell id="10" value="Street" style="ellipse;whiteSpace=wrap;html=1;align=center;fontStyle=0;strokeWidth=1;fillColor=#FFFFFF;fontSize=10;" parent="1" vertex="1">
          <mxGeometry x="180" y="260" width="60" height="30" as="geometry" />
        </mxCell>
        <mxCell id="11" value="City" style="ellipse;whiteSpace=wrap;html=1;align=center;fontStyle=0;strokeWidth=1;fillColor=#FFFFFF;fontSize=10;" parent="1" vertex="1">
          <mxGeometry x="180" y="300" width="60" height="30" as="geometry" />
        </mxCell>
        <mxCell id="12" value="State" style="ellipse;whiteSpace=wrap;html=1;align=center;fontStyle=0;strokeWidth=1;fillColor=#FFFFFF;fontSize=10;" parent="1" vertex="1">
          <mxGeometry x="180" y="340" width="60" height="30" as="geometry" />
        </mxCell>
        <mxCell id="13" value="Zip" style="ellipse;whiteSpace=wrap;html=1;align=center;fontStyle=0;strokeWidth=1;fillColor=#FFFFFF;fontSize=10;" parent="1" vertex="1">
          <mxGeometry x="250" y="340" width="60" height="30" as="geometry" />
        </mxCell>
        
        <!-- Connect Company to its attributes -->
        <mxCell id="14" value="" style="endArrow=none;html=1;rounded=0;exitX=0.5;exitY=0;exitDx=0;exitDy=0;entryX=0.5;entryY=1;entryDx=0;entryDy=0;" parent="1" source="2" target="3" edge="1">
          <mxGeometry relative="1" as="geometry" />
        </mxCell>
        <mxCell id="15" value="" style="endArrow=none;html=1;rounded=0;exitX=0.5;exitY=0;exitDx=0;exitDy=0;entryX=0.5;entryY=1;entryDx=0;entryDy=0;" parent="1" source="2" target="4" edge="1">
          <mxGeometry relative="1" as="geometry" />
        </mxCell>
        <mxCell id="16" value="" style="endArrow=none;html=1;rounded=0;exitX=0.5;exitY=0;exitDx=0;exitDy=0;entryX=0.5;entryY=1;entryDx=0;entryDy=0;" parent="1" source="2" target="5" edge="1">
          <mxGeometry relative="1" as="geometry" />
        </mxCell>
        <mxCell id="17" value="" style="endArrow=none;html=1;rounded=0;exitX=0.5;exitY=0;exitDx=0;exitDy=0;entryX=0.5;entryY=1;entryDx=0;entryDy=0;" parent="1" source="2" target="6" edge="1">
          <mxGeometry relative="1" as="geometry" />
        </mxCell>
        <mxCell id="18" value="" style="endArrow=none;html=1;rounded=0;exitX=1;exitY=0.5;exitDx=0;exitDy=0;entryX=0;entryY=0.5;entryDx=0;entryDy=0;" parent="1" source="2" target="7" edge="1">
          <mxGeometry relative="1" as="geometry" />
        </mxCell>
        <mxCell id="19" value="" style="endArrow=none;html=1;rounded=0;exitX=0;exitY=0.5;exitDx=0;exitDy=0;entryX=1;entryY=0.5;entryDx=0;entryDy=0;" parent="1" source="2" target="8" edge="1">
          <mxGeometry relative="1" as="geometry" />
        </mxCell>
        <mxCell id="20" value="" style="endArrow=none;html=1;rounded=0;exitX=0;exitY=1;exitDx=0;exitDy=0;entryX=1;entryY=0;entryDx=0;entryDy=0;" parent="1" source="2" target="9" edge="1">
          <mxGeometry relative="1" as="geometry" />
        </mxCell>
        
        <!-- Connect Address to its components -->
        <mxCell id="21" value="" style="endArrow=none;html=1;rounded=0;exitX=0;exitY=0.5;exitDx=0;exitDy=0;entryX=1;entryY=0.5;entryDx=0;entryDy=0;" parent="1" source="9" target="10" edge="1">
          <mxGeometry relative="1" as="geometry" />
        </mxCell>
        <mxCell id="22" value="" style="endArrow=none;html=1;rounded=0;exitX=0;exitY=0.5;exitDx=0;exitDy=0;entryX=1;entryY=0.5;entryDx=0;entryDy=0;" parent="1" source="9" target="11" edge="1">
          <mxGeometry relative="1" as="geometry" />
        </mxCell>
        <mxCell id="23" value="" style="endArrow=none;html=1;rounded=0;exitX=0;exitY=1;exitDx=0;exitDy=0;entryX=1;entryY=0.5;entryDx=0;entryDy=0;" parent="1" source="9" target="12" edge="1">
          <mxGeometry relative="1" as="geometry" />
        </mxCell>
        <mxCell id="24" value="" style="endArrow=none;html=1;rounded=0;exitX=0.5;exitY=1;exitDx=0;exitDy=0;entryX=0.5;entryY=0;entryDx=0;entryDy=0;" parent="1" source="9" target="13" edge="1">
          <mxGeometry relative="1" as="geometry" />
        </mxCell>
        
        <!-- Legend -->
        <mxCell id="25" value="LEGEND:" style="text;html=1;strokeColor=none;fillColor=none;align=left;verticalAlign=middle;whiteSpace=wrap;rounded=0;fontStyle=1;fontSize=14;" vertex="1" parent="1">
          <mxGeometry x="600" y="120" width="80" height="30" as="geometry" />
        </mxCell>
        <mxCell id="26" value="Entity" style="whiteSpace=wrap;align=center;verticalAlign=middle;fontStyle=1;strokeWidth=3;fillColor=#FFFFFF;fontSize=12;" vertex="1" parent="1">
          <mxGeometry x="600" y="160" width="80" height="40" as="geometry" />
        </mxCell>
        <mxCell id="27" value="Attribute" style="ellipse;whiteSpace=wrap;html=1;align=center;fontStyle=1;strokeWidth=2;fillColor=#FFFFFF;fontSize=12;" vertex="1" parent="1">
          <mxGeometry x="600" y="210" width="80" height="40" as="geometry" />
        </mxCell>
        <mxCell id="28" value="&lt;u&gt;Key Attribute&lt;/u&gt;" style="ellipse;whiteSpace=wrap;html=1;align=center;fontStyle=1;strokeWidth=2;fillColor=#FFFFFF;fontSize=12;" vertex="1" parent="1">
          <mxGeometry x="600" y="260" width="100" height="40" as="geometry" />
        </mxCell>
        <mxCell id="29" value="Composite Attribute" style="text;html=1;strokeColor=none;fillColor=none;align=left;verticalAlign=middle;whiteSpace=wrap;rounded=0;fontSize=12;" vertex="1" parent="1">
          <mxGeometry x="600" y="310" width="120" height="20" as="geometry" />
        </mxCell>
        <mxCell id="30" value="Address" style="ellipse;whiteSpace=wrap;html=1;align=center;fontStyle=1;strokeWidth=2;fillColor=#FFFFFF;fontSize=12;" vertex="1" parent="1">
          <mxGeometry x="600" y="330" width="70" height="40" as="geometry" />
        </mxCell>
        <mxCell id="31" value="Component" style="ellipse;whiteSpace=wrap;html=1;align=center;fontStyle=0;strokeWidth=1;fillColor=#FFFFFF;fontSize=10;" vertex="1" parent="1">
          <mxGeometry x="680" y="330" width="70" height="30" as="geometry" />
        </mxCell>
        <mxCell id="32" value="" style="endArrow=none;html=1;rounded=0;exitX=1;exitY=0.5;exitDx=0;exitDy=0;entryX=0;entryY=0.5;entryDx=0;entryDy=0;" edge="1" parent="1" source="30" target="31">
          <mxGeometry relative="1" as="geometry" />
        </mxCell>
      </root>
    </mxGraphModel>
  </diagram>
</mxfile>
